<svg height="511pt" viewBox="0 0 511.99952 511" width="511pt" xmlns="http://www.w3.org/2000/svg"><path d="m380.695312 167.710938h-286.683593c-17.871094 0-50.058594-20.066407-50.058594-55.738282 0-30.011718 22.242187-51.25 47.738281-55.105468 12.132813-1.832032 25.007813.269531 36.582032 7.242187 2.207031 1.328125 5.054687.105469 5.554687-2.414063 6.917969-34.890624 37.6875-61.195312 74.609375-61.195312 34.335938 0 63.351562 22.738281 72.824219 53.984375.546875 1.84375 2.402343 2.933594 4.289062 2.570313 35.492188-6.878907 64.519531 27.289062 54.253907 60.421874-.746094 2.402344.996093 4.847657 3.511718 4.847657h36.839844c9.800781 0 18.429688 6.058593 21.765625 14.742187.859375 2.214844 1.367187 4.609375 1.460937 7.117188.457032 12.917968-9.871093 23.527344-22.6875 23.527344zm0 0" fill="#2476ed"/><path d="m401.921875 137.066406h-263.929687c-17.871094 0-50.0625-20.066406-50.0625-55.738281 0-7.394531 1.347656-15.757813 3.761718-24.460937 12.132813-1.832032 25.007813.269531 36.582032 7.242187 2.207031 1.328125 5.054687.105469 5.554687-2.414063 6.917969-34.890624 37.6875-61.195312 74.609375-61.195312 34.335938 0 63.351562 22.738281 72.824219 53.984375.546875 1.84375 2.402343 2.933594 4.289062 2.570313 35.492188-6.878907 64.519531 27.289062 54.253907 60.421874-.746094 2.402344.996093 4.847657 3.511718 4.847657h36.839844c9.800781 0 18.429688 6.0625 21.765625 14.742187zm0 0" fill="#5596fb"/><path d="m120.304688 199.722656c-3.828126-1.9375-8.503907-.40625-10.441407 3.421875l-15.550781 30.710938c-1.9375 3.828125-.40625 8.503906 3.421875 10.441406 1.125.570313 2.324219.839844 3.503906.839844 2.835938 0 5.570313-1.558594 6.9375-4.261719l15.550781-30.707031c1.941407-3.832031.40625-8.503907-3.421874-10.445313zm0 0" fill="#97bffd"/><path d="m192.597656 199.730469c-3.820312-1.945313-8.5-.425781-10.449218 3.398437l-15.640626 30.710938c-1.949218 3.824218-.425781 8.5 3.398438 10.449218 1.128906.574219 2.332031.847657 3.519531.847657 2.828125 0 5.554688-1.550781 6.929688-4.246094l15.640625-30.710937c1.945312-3.820313.425781-8.5-3.398438-10.449219zm0 0" fill="#5596fb"/><path d="m264.890625 199.738281c-3.816406-1.953125-8.5-.445312-10.457031 3.375l-15.730469 30.710938c-1.957031 3.820312-.445313 8.5 3.375 10.457031 1.132813.582031 2.34375.855469 3.535156.855469 2.824219 0 5.546875-1.542969 6.921875-4.230469l15.730469-30.710938c1.953125-3.816406.445313-8.5-3.375-10.457031zm0 0" fill="#97bffd"/><path d="m337.183594 199.746094c-3.816406-1.960938-8.5-.464844-10.46875 3.351562l-15.816406 30.710938c-1.964844 3.8125-.464844 8.5 3.351562 10.464844 1.136719.585937 2.351562.863281 3.550781.863281 2.816407 0 5.535157-1.535157 6.914063-4.210938l15.816406-30.710937c1.964844-3.816406.464844-8.503906-3.347656-10.46875zm0 0" fill="#5596fb"/><path d="m73.570312 292.011719c-3.828124-1.9375-8.503906-.40625-10.441406 3.421875l-15.554687 30.710937c-1.9375 3.828125-.40625 8.503907 3.421875 10.441407 1.128906.570312 2.324218.839843 3.507812.839843 2.835938 0 5.566406-1.554687 6.9375-4.257812l15.550782-30.710938c1.9375-3.828125.40625-8.503906-3.421876-10.445312zm0 0" fill="#97bffd"/><path d="m145.597656 292.023438c-3.820312-1.949219-8.503906-.429688-10.453125 3.394531l-15.640625 30.710937c-1.945312 3.824219-.425781 8.503906 3.398438 10.449219 1.128906.574219 2.335937.847656 3.519531.847656 2.832031 0 5.558594-1.550781 6.929687-4.246093l15.640626-30.707032c1.949218-3.824218.429687-8.503906-3.394532-10.449218zm0 0" fill="#5596fb"/><path d="m217.625 292.03125c-3.820312-1.957031-8.503906-.449219-10.460938 3.371094l-15.726562 30.710937c-1.957031 3.820313-.445312 8.5 3.375 10.457031 1.132812.582032 2.34375.855469 3.535156.855469 2.820313 0 5.546875-1.542969 6.921875-4.230469l15.726563-30.707031c1.957031-3.820312.445312-8.503906-3.371094-10.457031zm0 0" fill="#97bffd"/><path d="m289.648438 292.039062c-3.8125-1.964843-8.5-.464843-10.464844 3.347657l-15.816406 30.710937c-1.964844 3.816406-.464844 8.5 3.351562 10.464844 1.136719.585938 2.351562.863281 3.550781.863281 2.816407 0 5.535157-1.535156 6.914063-4.210937l15.816406-30.710938c1.964844-3.816406.464844-8.5-3.351562-10.464844zm0 0" fill="#5596fb"/><path d="m26.835938 384.304688c-3.832032-1.941407-8.507813-.410157-10.445313 3.421874l-15.550781 30.710938c-1.9375 3.828125-.40625 8.5 3.421875 10.441406 1.125.570313 2.324219.839844 3.503906.839844 2.835937 0 5.570313-1.558594 6.9375-4.261719l15.554687-30.710937c1.9375-3.828125.40625-8.503906-3.421874-10.441406zm0 0" fill="#97bffd"/><path d="m98.59375 384.3125c-3.820312-1.949219-8.5-.425781-10.449219 3.398438l-15.640625 30.710937c-1.945312 3.824219-.425781 8.5 3.398438 10.449219 1.128906.574218 2.335937.847656 3.519531.847656 2.832031 0 5.558594-1.554688 6.929687-4.246094l15.640626-30.710937c1.949218-3.824219.425781-8.503907-3.398438-10.449219zm0 0" fill="#5596fb"/><path d="m170.355469 384.320312c-3.816407-1.957031-8.5-.449218-10.457031 3.375l-15.730469 30.707032c-1.953125 3.820312-.445313 8.503906 3.375 10.457031 1.136719.582031 2.34375.859375 3.535156.859375 2.824219 0 5.546875-1.546875 6.925781-4.230469l15.726563-30.710937c1.957031-3.820313.445312-8.5-3.375-10.457032zm0 0" fill="#97bffd"/><path d="m242.117188 384.328125c-3.8125-1.964844-8.5-.464844-10.464844 3.351563l-15.816406 30.707031c-1.964844 3.816406-.464844 8.5 3.351562 10.46875 1.136719.585937 2.351562.863281 3.550781.863281 2.816407 0 5.535157-1.539062 6.914063-4.214844l15.816406-30.710937c1.964844-3.8125.464844-8.5-3.351562-10.464844zm0 0" fill="#5596fb"/><g fill="#2476ed"><path d="m382.429688 358.382812h-18.089844c-4.289063 0-7.769532 3.480469-7.769532 7.769532 0 4.292968 3.480469 7.773437 7.769532 7.773437h18.089844c9.414062 0 17.074218 7.65625 17.074218 17.070313 0 9.414062-7.660156 17.074218-17.074218 17.074218h-114.777344c-4.292969 0-7.769532 3.480469-7.769532 7.769532 0 4.292968 3.476563 7.769531 7.769532 7.769531h114.777344c17.980468 0 32.613281-14.628906 32.613281-32.613281 0-17.980469-14.632813-32.613282-32.613281-32.613282zm0 0"/><path d="m397.457031 449.933594h-207.203125c-4.289062 0-7.769531 3.480468-7.769531 7.773437 0 4.289063 3.480469 7.769531 7.769531 7.769531h207.203125c4.292969 0 7.769531-3.480468 7.769531-7.769531 0-4.292969-3.480468-7.773437-7.769531-7.773437zm0 0"/><path d="m484.015625 449.933594h-55.480469c-4.292968 0-7.769531 3.480468-7.769531 7.773437 0 4.289063 3.476563 7.769531 7.769531 7.769531h55.480469c6.863281 0 12.445313 5.582032 12.445313 12.441407s-5.582032 12.441406-12.445313 12.441406h-14.714844c-4.292969 0-7.769531 3.480469-7.769531 7.769531 0 4.292969 3.476562 7.773438 7.769531 7.773438h14.714844c15.433594 0 27.984375-12.554688 27.984375-27.984375 0-15.429688-12.550781-27.984375-27.984375-27.984375zm0 0"/><path d="m349.640625 496.019531h-41.4375c-4.292969 0-7.769531 3.480469-7.769531 7.769531 0 4.292969 3.476562 7.769532 7.769531 7.769532h41.4375c4.292969 0 7.773437-3.476563 7.773437-7.769532 0-4.289062-3.480468-7.769531-7.773437-7.769531zm0 0"/><path d="m277.121094 496.019531h-14.5c-4.292969 0-7.769532 3.480469-7.769532 7.769531 0 4.292969 3.476563 7.769532 7.769532 7.769532h14.5c4.292968 0 7.769531-3.476563 7.769531-7.769532 0-4.289062-3.476563-7.769531-7.769531-7.769531zm0 0"/></g></svg>