<svg height="512pt" viewBox="-3 0 512 512" width="512pt" xmlns="http://www.w3.org/2000/svg"><path d="m375.691406 172.675781h-282.90625c-17.636718 0-49.402344-19.800781-49.402344-55 0-29.621093 21.949219-50.578125 47.113282-54.382812 11.96875-1.808594 24.679687.265625 36.097656 7.148437 2.179688 1.308594 4.988281.101563 5.480469-2.382812 6.828125-34.433594 37.191406-60.390625 73.628906-60.390625 33.882813 0 62.519531 22.441406 71.863281 53.273437.542969 1.820313 2.371094 2.894532 4.234375 2.539063 35.023438-6.789063 63.671875 26.925781 53.539063 59.621093-.734375 2.375.980468 4.785157 3.464844 4.785157h36.355468c9.671875 0 18.1875 5.980469 21.480469 14.550781.847656 2.1875 1.351563 4.546875 1.441406 7.023438.449219 12.746093-9.742187 23.214843-22.390625 23.214843zm0 0" fill="#2476ed"/><path d="m396.640625 142.4375h-260.457031c-17.636719 0-49.402344-19.804688-49.402344-55.003906 0-7.300782 1.328125-15.550782 3.710938-24.140625 11.972656-1.808594 24.679687.265625 36.101562 7.148437 2.175781 1.308594 4.988281.101563 5.480469-2.382812 6.828125-34.433594 37.191406-60.390625 73.628906-60.390625 33.882813 0 62.519531 22.441406 71.863281 53.273437.539063 1.820313 2.371094 2.894532 4.230469 2.539063 35.027344-6.789063 63.675781 26.925781 53.542969 59.621093-.738282 2.375.980468 4.785157 3.464844 4.785157h36.355468c9.671875 0 18.1875 5.980469 21.480469 14.550781zm0 0" fill="#5596fb"/><path d="m52.605469 129.847656c-11.753907-44.304687 39.039062-76.207031 74.015625-50.167968 4.707031 3.503906 11.472656.621093 12.1875-5.21875 4.121094-33.707032 32.882812-59.125 66.898437-59.125 30.890625 0 57.757813 20.882812 65.335938 50.78125.503906 1.988281 1.78125 3.6875 3.546875 4.726562 4.546875 2.675781 6.5625-.582031 16.253906-.582031 26.699219 0 47.015625 28.292969 35.683594 54.589843-2.179688 5.050782 1.53125 10.699219 7.042968 10.699219h42.125c8.121094 0 14.730469 6.609375 14.730469 14.730469s-6.609375 14.726562-14.730469 14.726562h-282.910156c-6.574218 0-17.378906-3.960937-26.699218-12.8125-3.070313-2.917968-7.925782-2.792968-10.839844.277344-2.917969 3.070313-2.792969 7.921875.277344 10.839844 10.890624 10.347656 25.519531 17.03125 37.261718 17.03125h282.910156c16.578126 0 30.0625-13.484375 30.0625-30.0625s-13.484374-30.066406-30.0625-30.066406h-31.707031c7.238281-35.28125-22.734375-69.679688-60.171875-64.832032-11.488281-32.949218-42.640625-55.382812-78.109375-55.382812-37.847656 0-70.398437 25.644531-79.925781 61.269531-46.964844-23.019531-101.992188 19.769531-87.996094 72.511719 1.085938 4.09375 5.285156 6.53125 9.378906 5.445312 4.09375-1.085937 6.527344-5.285156 5.441407-9.378906zm0 0"/><path d="m118.730469 204.269531c-3.777344-1.914062-8.390625-.402343-10.304688 3.375l-15.347656 30.308594c-1.914063 3.777344-.402344 8.390625 3.378906 10.300781 3.796875 1.925782 8.402344.382813 10.304688-3.375l15.347656-30.304687c1.910156-3.777344.398437-8.394531-3.378906-10.304688zm0 0"/><path d="m190.070312 204.277344c-3.769531-1.921875-8.386718-.421875-10.3125 3.351562l-15.433593 30.304688c-1.921875 3.773437-.421875 8.390625 3.351562 10.3125 3.792969 1.929687 8.402344.40625 10.3125-3.351563l15.4375-30.304687c1.921875-3.773438.417969-8.390625-3.355469-10.3125zm0 0"/><path d="m249.21875 244.910156 15.523438-30.304687c1.929687-3.769531.4375-8.390625-3.332032-10.320313-3.765625-1.929687-8.386718-.441406-10.320312 3.328125l-15.519532 30.304688c-2.621093 5.121093 1.132813 11.164062 6.820313 11.164062 2.785156 0 5.472656-1.523437 6.828125-4.171875zm0 0"/><path d="m322.425781 207.597656-15.609375 30.304688c-1.941406 3.765625-.460937 8.390625 3.304688 10.328125 3.78125 1.949219 8.398437.445312 10.328125-3.304688l15.609375-30.304687c1.9375-3.765625.457031-8.390625-3.304688-10.328125-3.765625-1.941407-8.390625-.460938-10.328125 3.304687zm0 0"/><path d="m72.609375 295.34375c-3.777344-1.914062-8.390625-.402344-10.304687 3.375l-15.347657 30.308594c-2.597656 5.132812 1.1875 11.132812 6.835938 11.132812 2.796875 0 5.496093-1.539062 6.847656-4.207031l15.347656-30.304687c1.914063-3.777344.402344-8.390626-3.378906-10.304688zm0 0"/><path d="m143.6875 295.351562c-3.769531-1.921874-8.386719-.421874-10.3125 3.351563l-15.433594 30.308594c-1.921875 3.773437-.421875 8.390625 3.355469 10.3125 3.789063 1.929687 8.398437.402343 10.3125-3.355469l15.433594-30.304688c1.921875-3.773437.417969-8.390624-3.355469-10.3125zm0 0"/><path d="m214.769531 295.359375c-3.769531-1.929687-8.390625-.441406-10.324219 3.328125l-15.519531 30.304688c-1.929687 3.769531-.441406 8.390624 3.328125 10.320312 3.792969 1.945312 8.402344.417969 10.320313-3.328125l15.523437-30.304687c1.929688-3.769532.4375-8.390626-3.328125-10.320313zm0 0"/><path d="m266.71875 340.160156c2.78125 0 5.464844-1.519531 6.824219-4.160156l15.609375-30.304688c1.9375-3.765624.457031-8.390624-3.308594-10.328124-3.761719-1.9375-8.386719-.460938-10.324219 3.304687l-15.609375 30.304687c-2.648437 5.144532 1.148438 11.183594 6.808594 11.183594zm0 0"/><path d="m26.488281 386.417969c-3.777343-1.914063-8.390625-.402344-10.304687 3.378906l-15.347656 30.304687c-2.597657 5.132813 1.1875 11.132813 6.835937 11.132813 2.800781 0 5.496094-1.535156 6.847656-4.203125l15.347657-30.308594c1.914062-3.777344.402343-8.390625-3.378907-10.304687zm0 0"/><path d="m97.304688 386.425781c-3.769532-1.921875-8.390626-.417969-10.3125 3.355469l-15.433594 30.304688c-1.921875 3.773437-.417969 8.390624 3.355468 10.3125 3.769532 1.921874 8.390626.417968 10.3125-3.355469l15.433594-30.304688c1.921875-3.773437.417969-8.390625-3.355468-10.3125zm0 0"/><path d="m168.125 386.433594c-3.769531-1.929688-8.390625-.441406-10.324219 3.328125l-15.519531 30.308593c-1.929688 3.769532-.441406 8.386719 3.328125 10.320313 3.792969 1.941406 8.402344.414063 10.324219-3.332031l15.519531-30.304688c1.929687-3.769531.4375-8.386718-3.328125-10.320312zm0 0"/><path d="m219.8125 431.234375c2.78125 0 5.464844-1.515625 6.824219-4.15625l15.609375-30.308594c1.9375-3.765625.457031-8.386719-3.304688-10.328125-3.765625-1.9375-8.390625-.457031-10.328125 3.304688l-15.609375 30.308594c-2.648437 5.140624 1.148438 11.179687 6.808594 11.179687zm0 0"/><path d="m377.402344 360.839844h-17.847656c-4.238282 0-7.667969 3.433594-7.667969 7.667968 0 4.234376 3.429687 7.667969 7.667969 7.667969h17.847656c9.289062 0 16.847656 7.558594 16.847656 16.847657 0 9.292968-7.558594 16.847656-16.847656 16.847656h-113.265625c-4.238281 0-7.667969 3.433594-7.667969 7.667968 0 4.234376 3.429688 7.667969 7.667969 7.667969h113.265625c17.746094 0 32.183594-14.4375 32.183594-32.183593 0-17.746094-14.4375-32.183594-32.183594-32.183594zm0 0"/><path d="m477.65625 451.1875h-54.753906c-4.234375 0-7.667969 3.429688-7.667969 7.664062 0 4.238282 3.433594 7.667969 7.667969 7.667969h54.753906c6.769531 0 12.277344 5.511719 12.277344 12.28125s-5.507813 12.277344-12.277344 12.277344h-14.523438c-4.238281 0-7.667968 3.433594-7.667968 7.667969s3.429687 7.667968 7.667968 7.667968h14.523438c15.226562 0 27.613281-12.386718 27.613281-27.613281 0-15.226562-12.390625-27.613281-27.613281-27.613281zm0 0"/><path d="m392.230469 451.1875h-204.472657c-4.234374 0-7.667968 3.429688-7.667968 7.664062 0 4.238282 3.433594 7.667969 7.667968 7.667969h204.472657c4.238281 0 7.667969-3.429687 7.667969-7.667969 0-4.234374-3.429688-7.664062-7.667969-7.664062zm0 0"/><path d="m345.046875 496.664062h-40.894531c-4.234375 0-7.667969 3.433594-7.667969 7.667969s3.433594 7.667969 7.667969 7.667969h40.894531c4.238281 0 7.667969-3.433594 7.667969-7.667969s-3.429688-7.667969-7.667969-7.667969zm0 0"/><path d="m273.484375 496.664062h-14.308594c-4.238281 0-7.667969 3.433594-7.667969 7.667969s3.429688 7.667969 7.667969 7.667969h14.308594c4.234375 0 7.667969-3.433594 7.667969-7.667969s-3.433594-7.667969-7.667969-7.667969zm0 0"/></svg>