<svg height="511pt" viewBox="1 -37 511.999 511" width="511pt" xmlns="http://www.w3.org/2000/svg"><path d="m352.738281 147.535156c0-.15625.003907-.3125.003907-.46875 0-56.96875-46.179688-103.148437-103.144532-103.148437-44.382812 0-82.210937 28.03125-96.765625 67.351562-6.070312-3.503906-13.109375-5.519531-20.621093-5.519531-22.820313 0-41.320313 18.496094-41.320313 41.316406 0 .0625.003906.128906.007813.191406-46.558594 2.988282-83.398438 41.691407-83.398438 89.003907 0 49.257812 39.933594 89.191406 89.195312 89.191406h246.859376c49.261718 0 89.195312-39.933594 89.195312-89.191406 0-46.164063-35.066406-84.132813-80.011719-88.726563zm0 0" fill="#e5ebf5"/><g fill="#96d1f3"><path d="m143.667969 405.148438c0 13.367187-10.835938 24.203124-24.203125 24.203124-13.363282 0-24.199219-10.835937-24.199219-24.203124 0-13.367188 24.199219-44.003907 24.199219-44.003907s24.203125 30.636719 24.203125 44.003907zm0 0"/><path d="m244.328125 405.148438c0 13.367187-10.835937 24.203124-24.203125 24.203124s-24.203125-10.835937-24.203125-24.203124c0-13.367188 24.203125-44.003907 24.203125-44.003907s24.203125 30.636719 24.203125 44.003907zm0 0"/><path d="m344.984375 405.148438c0 13.367187-10.832031 24.203124-24.199219 24.203124-13.367187 0-24.203125-10.835937-24.203125-24.203124 0-13.367188 24.203125-44.003907 24.203125-44.003907s24.199219 30.636719 24.199219 44.003907zm0 0"/></g><path d="m475.792969 136.863281c-55.316407 0-100.15625-44.84375-100.15625-100.160156 0-8.871094 1.15625-17.46875 3.320312-25.660156-29.125 7.699219-53.042969 28.195312-65.398437 55.105469 23.867187 18.890624 39.183594 48.113281 39.183594 80.917968 0 .15625-.003907.3125-.007813.46875 34.398437 3.515625 62.988281 26.589844 74.523437 57.914063 36.117188-8.351563 64.761719-36.21875 74.195313-71.910157-8.1875 2.164063-16.789063 3.324219-25.660156 3.324219zm0 0" fill="#f8e868"/><path d="m162.210938 105.75c7.515624 0 14.554687 2.015625 20.625 5.519531 12.886718-34.816406 44.027343-60.765625 81.800781-66.253906-4.910157-.71875-9.929688-1.097656-15.042969-1.097656-42.53125 0-79.03125 25.753906-94.808594 62.507812 2.410156-.4375 4.890625-.675781 7.425782-.675781zm0 0" fill="#cad8ea"/><path d="m37.503906 236.261719c0-47.3125 36.839844-86.015625 83.398438-89.003907 0-.0625-.007813-.128906-.007813-.191406 0-17.515625 10.90625-32.476562 26.292969-38.488281-4.644531-1.8125-9.691406-2.828125-14.976562-2.828125-22.820313 0-41.320313 18.496094-41.320313 41.316406 0 .0625.007813.128906.007813.191406-46.558594 2.988282-83.398438 41.691407-83.398438 89.003907 0 49.257812 39.933594 89.191406 89.195312 89.191406h30.003907c-49.261719 0-89.195313-39.929687-89.195313-89.191406zm0 0" fill="#cad8ea"/><path d="m125.265625 405.148438c0-5.605469 4.261719-14.242188 9.203125-22.390626-6.84375-11.28125-15.003906-21.613281-15.003906-21.613281s-24.203125 30.636719-24.203125 44.003907c0 13.367187 10.835937 24.203124 24.203125 24.203124 5.667968 0 10.878906-1.957031 15.003906-5.21875-5.601562-4.433593-9.203125-11.285156-9.203125-18.984374zm0 0" fill="#3ca6e6"/><path d="m225.925781 405.148438c0-5.605469 4.257813-14.242188 9.199219-22.390626-6.84375-11.28125-15-21.613281-15-21.613281s-24.203125 30.636719-24.203125 44.003907c0 13.367187 10.835937 24.203124 24.203125 24.203124 5.667969 0 10.878906-1.957031 15-5.21875-5.601562-4.433593-9.199219-11.285156-9.199219-18.984374zm0 0" fill="#3ca6e6"/><path d="m326.585938 405.148438c0-5.605469 4.257812-14.242188 9.199218-22.390626-6.84375-11.28125-15.003906-21.613281-15.003906-21.613281s-24.199219 30.636719-24.199219 44.003907c0 13.367187 10.835938 24.203124 24.199219 24.203124 5.671875 0 10.878906-1.957031 15.003906-5.21875-5.601562-4.429687-9.199218-11.285156-9.199218-18.984374zm0 0" fill="#3ca6e6"/><path d="m382.738281 147.535156c.003907-.15625.007813-.3125.007813-.46875 0-32.804687-15.316406-62.027344-39.183594-80.917968 7.28125-15.855469 18.578125-29.480469 32.585938-39.578126.535156-5.308593 1.480468-10.492187 2.808593-15.527343-29.125 7.699219-53.042969 28.195312-65.398437 55.105469 23.871094 18.890624 39.183594 48.113281 39.183594 80.917968 0 .15625-.003907.3125-.007813.46875 34.398437 3.515625 62.988281 26.589844 74.523437 57.914063 9.09375-2.101563 17.714844-5.445313 25.675782-9.835938-13.460938-26.234375-39.507813-44.941406-70.195313-48.078125zm0 0" fill="#e0c938"/><path d="m238.488281 258.960938h-15v-15h15zm-25 0h-15.003906v-15h15.003906zm0 0" fill="#fff"/><path d="m360.078125 140.972656c-3.175781-58.1875-51.515625-104.554687-110.480469-104.554687-43.382812 0-82.882812 25.71875-100.710937 64.769531-5.324219-1.933594-10.972657-2.9375-16.675781-2.9375-24.664063 0-45.117188 18.386719-48.367188 42.171875-47.519531 6.320313-83.84375 47.207031-83.84375 95.839844 0 53.316406 43.378906 96.695312 96.695312 96.695312h246.859376c53.316406 0 96.695312-43.378906 96.695312-96.695312 0-47.691407-34.550781-87.421875-80.171875-95.289063zm-16.523437 176.980469h-246.859376c-45.046874 0-81.695312-36.648437-81.695312-81.691406 0-42.960938 33.550781-78.769531 76.378906-81.519531l7.074219-.453126c-.0625-8.09375-.054687-6.996093-.058594-7.332031.058594-18.597656 15.207031-33.707031 33.816407-33.707031 5.917968 0 11.753906 1.5625 16.871093 4.515625l7.699219 4.445313 3.085938-8.335938c13.824218-37.355469 49.882812-62.453125 89.730468-62.453125 52.738282 0 95.644532 42.90625 95.644532 95.644531l-.046876 7.234375 6.777344.695313c41.773438 4.269531 73.277344 39.207031 73.277344 81.265625-.003906 45.042969-36.648438 81.691406-81.695312 81.691406zm0 0"/><path d="m119.464844 349.042969-5.882813 7.453125c-4.3125 5.457031-25.820312 33.453125-25.820312 48.652344 0 17.480468 14.222656 31.703124 31.703125 31.703124 17.484375 0 31.703125-14.222656 31.703125-31.703124 0-15.199219-21.503907-43.195313-25.816407-48.652344zm0 72.808593c-9.207032 0-16.699219-7.492187-16.699219-16.703124 0-5.4375 7.875-19.152344 16.699219-31.503907 8.824218 12.351563 16.703125 26.066407 16.703125 31.503907 0 9.210937-7.492188 16.703124-16.703125 16.703124zm0 0"/><path d="m220.125 349.042969-5.886719 7.453125c-4.3125 5.457031-25.816406 33.453125-25.816406 48.652344 0 17.480468 14.222656 31.703124 31.703125 31.703124s31.703125-14.222656 31.703125-31.703124c0-15.199219-21.507813-43.195313-25.816406-48.652344zm0 72.808593c-9.210938 0-16.703125-7.492187-16.703125-16.703124 0-5.4375 7.878906-19.15625 16.703125-31.507813 8.824219 12.34375 16.699219 26.0625 16.699219 31.507813 0 9.210937-7.492188 16.703124-16.699219 16.703124zm0 0"/><path d="m320.785156 349.042969-5.886718 7.453125c-4.3125 5.457031-25.816407 33.453125-25.816407 48.652344 0 17.480468 14.21875 31.703124 31.703125 31.703124 17.480469 0 31.703125-14.222656 31.703125-31.703124 0-15.199219-21.507812-43.195313-25.816406-48.652344zm0 72.808593c-9.210937 0-16.703125-7.492187-16.703125-16.703124 0-5.4375 7.878907-19.15625 16.703125-31.507813 8.824219 12.34375 16.699219 26.0625 16.699219 31.507813 0 9.210937-7.492187 16.703124-16.699219 16.703124zm0 0"/><path d="m499.535156 126.285156c-7.714844 2.042969-15.703125 3.074219-23.742187 3.074219-51.089844 0-92.65625-41.566406-92.65625-92.65625 0-8.035156 1.035156-16.023437 3.074219-23.742187l3.292968-12.460938-12.460937 3.292969c-21.230469 5.609375-40.023438 17.460937-54.355469 34.265625l11.414062 9.734375c9.613282-11.273438 21.554688-19.957031 34.996094-25.523438-9.445312 70.277344 50.585938 130.597657 121.109375 121.132813-8.003906 19.207031-22.445312 35.453125-40.878906 45.632812l7.25 13.132813c25.667969-14.167969 44.667969-38.484375 52.128906-66.714844l3.292969-12.460937zm0 0"/></svg>