<svg height="413pt" viewBox="0 -20 413.55198 413" width="413pt" xmlns="http://www.w3.org/2000/svg"><path d="m274.125 267.167969h-17.160156c-3.773438 0-6.824219-3.054688-6.824219-6.824219s3.050781-6.828125 6.824219-6.828125h17.160156c24.121094 0 43.75-19.621094 43.75-43.742187 0-20.351563-13.839844-37.835938-33.65625-42.519532-3.273438-.777344-5.5-3.828125-5.230469-7.183594.210938-2.671874.351563-5.367187.351563-8.09375 0-55.988281-45.550782-101.535156-101.539063-101.535156-48.109375 0-89.953125 34.164063-99.5 81.234375-.648437 3.171875-3.433593 5.453125-6.667969 5.46875-31.972656.117188-57.980468 26.214844-57.980468 58.179688 0 32.085937 26.101562 58.195312 58.1875 58.195312h14.535156c3.773438 0 6.824219 3.054688 6.824219 6.824219s-3.050781 6.828125-6.824219 6.828125h-14.535156c-39.613282 0-71.839844-32.230469-71.839844-71.847656 0-37.628907 29.1875-68.667969 66.105469-71.605469 12.789062-50.6875 58.921875-86.933594 111.695312-86.933594 63.519531 0 115.191407 51.675782 115.191407 115.191406 0 1.207032-.027344 2.402344-.066407 3.597657 22.996094 7.910156 38.601563 29.4375 38.601563 54.199219 0 31.648437-25.746094 57.394531-57.402344 57.394531zm0 0"/><path d="m360.953125 149.664062c-36.257813 0-65.648437-29.394531-65.648437-65.652343 0-36.257813 29.390624-65.652344 65.648437-65.652344 4.429687 0 8.75.453125 12.9375 1.289063-13.066406-7.957032-28.410156-12.542969-44.824219-12.542969-38.890625 0-71.75 25.738281-82.527344 61.105469 24.191407 19.875 39.628907 50.015624 39.628907 83.765624 0 2.910157-.148438 5.78125-.371094 8.632813 11.152344 2.636719 20.882813 8.960937 27.820313 17.609375 5.019531.910156 10.167968 1.457031 15.449218 1.457031 34.160156 0 63.679688-19.851562 77.660156-48.648437-11.828124 11.515625-27.960937 18.636718-45.773437 18.636718zm0 0" fill="#feda38"/><path d="m329.066406 186.503906c-5.40625 0-10.859375-.511718-16.675781-1.566406-1.613281-.292969-3.074219-1.160156-4.105469-2.445312-6.09375-7.597657-14.640625-13.011719-24.066406-15.238282-3.273438-.773437-5.5-3.828125-5.234375-7.183594.214844-2.671874.355469-5.367187.355469-8.09375 0-30.488281-13.535156-59.101562-37.136719-78.492187-2.132813-1.753906-3-4.621094-2.199219-7.265625 12.019532-39.441406 47.808594-65.941406 89.0625-65.941406 17.105469 0 33.832032 4.683594 48.375 13.539062 2.824219 1.722656 4.003906 5.226563 2.804688 8.308594-1.210938 3.09375-4.484375 4.855469-7.691406 4.214844-3.847657-.761719-7.746094-1.152344-11.601563-1.152344-32.441406 0-58.828125 26.390625-58.828125 58.824219 0 32.4375 26.386719 58.824219 58.828125 58.824219 15.386719 0 29.953125-5.929688 41.011719-16.699219 2.367187-2.320313 6.0625-2.589844 8.753906-.644531 2.695312 1.941406 3.59375 5.535156 2.148438 8.515624-15.480469 31.890626-48.375 52.496094-83.800782 52.496094zm-11.847656-14.601562c4.105469.636718 8.007812.949218 11.847656.949218 19.546875 0 37.757813-6.960937 51.875-19.15625-6.429687 1.839844-13.140625 2.796876-19.988281 2.796876-39.964844 0-72.480469-32.515626-72.480469-72.480469 0-32.632813 21.671875-60.292969 51.386719-69.347657-3.5625-.488281-7.167969-.734374-10.792969-.734374-33.722656 0-63.167968 20.753906-74.601562 52.082031 24.546875 21.890625 38.527344 52.953125 38.527344 85.964843 0 1.210938-.027344 2.414063-.066407 3.609376 9.316407 3.242187 17.734375 8.886718 24.292969 16.316406zm0 0"/><path d="m42.605469 202.171875c-3.773438 0-6.824219-3.054687-6.824219-6.824219 0-24.515625 19.945312-44.457031 44.460938-44.457031 3.773437 0 6.824218 3.054687 6.824218 6.824219 0 3.769531-3.050781 6.828125-6.824218 6.828125-16.988282 0-30.808594 13.816406-30.808594 30.804687 0 3.769532-3.054688 6.824219-6.828125 6.824219zm0 0"/><path d="m149.730469 359.042969c-1.824219 6.027343-8.191407 9.433593-14.222657 7.605469-6.027343-1.828126-9.433593-8.191407-7.605468-14.21875 1.828125-6.03125 22.492187-34.894532 22.492187-34.894532s1.164063 35.480469-.664062 41.507813zm0 0" fill="#26bbec"/><path d="m138.839844 373.976562c-1.777344 0-3.566406-.261718-5.3125-.792968-9.621094-2.917969-15.074219-13.113282-12.160156-22.738282 1.949218-6.414062 17.066406-27.933593 23.472656-36.886718 1.707031-2.378906 4.742187-3.390625 7.535156-2.558594 2.800781.851562 4.746094 3.386719 4.839844 6.308594.367187 11.007812 1 37.300781-.949219 43.714844-1.410156 4.660156-4.550781 8.488281-8.851563 10.789062-2.6875 1.433594-5.621093 2.164062-8.574218 2.164062zm5.09375-35.128906c-4.972656 7.4375-8.855469 13.652344-9.507813 15.585938-.726562 2.390625.648438 4.949218 3.0625 5.683594 1.179688.351562 2.414063.234374 3.484375-.347657 1.082032-.574219 1.867188-1.527343 2.222656-2.6875.523438-1.992187.746094-9.300781.738282-18.234375zm0 0"/><path d="m172.539062 290.613281c-1.824218 6.027344-8.191406 9.433594-14.21875 7.609375-6.03125-1.828125-9.4375-8.195312-7.609374-14.222656 1.828124-6.027344 22.492187-34.894531 22.492187-34.894531s1.164063 35.480469-.664063 41.507812zm0 0" fill="#26bbec"/><path d="m161.652344 305.546875c-1.777344 0-3.566406-.261719-5.3125-.792969-9.621094-2.917968-15.070313-13.113281-12.160156-22.734375 1.941406-6.414062 17.0625-27.933593 23.46875-36.886719 1.707031-2.378906 4.753906-3.398437 7.53125-2.5625 2.800781.847657 4.746093 3.386719 4.839843 6.3125.367188 11.003907 1 37.296876-.945312 43.710938-1.414063 4.660156-4.554688 8.496094-8.847657 10.789062-2.6875 1.433594-5.613281 2.164063-8.574218 2.164063zm5.085937-35.121094c-4.964843 7.433594-8.847656 13.644531-9.496093 15.582031-.347657 1.144532-.230469 2.378907.351562 3.457032.574219 1.078125 1.539062 1.871094 2.707031 2.222656 1.171875.351562 2.414063.230469 3.484375-.34375 1.074219-.574219 1.863282-1.527344 2.214844-2.691406.527344-1.992188.746094-9.296875.738281-18.226563zm0 0"/><path d="m201.054688 336.234375c-1.828126 6.027344-8.195313 9.433594-14.222657 7.605469-6.027343-1.828125-9.433593-8.195313-7.605469-14.222656 1.824219-6.027344 22.492188-34.894532 22.492188-34.894532s1.160156 35.484375-.664062 41.511719zm0 0" fill="#26bbec"/><path d="m190.160156 351.167969c-1.773437 0-3.558594-.265625-5.304687-.792969-4.660157-1.410156-8.496094-4.554688-10.792969-8.851562-2.296875-4.296876-2.78125-9.222657-1.367188-13.886719 1.945313-6.414063 17.058594-27.933594 23.464844-36.886719 1.707032-2.382812 4.753906-3.398438 7.535156-2.5625 2.800782.847656 4.746094 3.386719 4.839844 6.3125.367188 11.003906 1 37.296875-.949218 43.710938-1.410157 4.660156-4.550782 8.492187-8.847657 10.785156-2.683593 1.441406-5.617187 2.171875-8.578125 2.171875zm5.09375-35.128907c-4.96875 7.441407-8.847656 13.652344-9.5 15.585938-.347656 1.144531-.226562 2.382812.347656 3.460938.578126 1.078124 1.539063 1.867187 2.710938 2.222656 2.402344.730468 4.96875-.628906 5.703125-3.039063.523437-1.988281.742187-9.296875.738281-18.230469zm0 0"/><path d="m223.863281 273.507812c-1.824219 6.027344-8.195312 9.433594-14.222656 7.605469s-9.433594-8.195312-7.605469-14.222656 22.492188-34.894531 22.492188-34.894531 1.164062 35.484375-.664063 41.511718zm0 0" fill="#26bbec"/><path d="m212.964844 288.441406c-1.773438 0-3.558594-.265625-5.304688-.796875-9.621094-2.914062-15.074218-13.113281-12.160156-22.734375 1.949219-6.414062 17.066406-27.933594 23.472656-36.886718 1.707032-2.382813 4.742188-3.394532 7.535156-2.558594 2.800782.847656 4.746094 3.386718 4.839844 6.308594.359375 11.007812.984375 37.296874-.953125 43.710937-1.414062 4.660156-4.554687 8.492187-8.847656 10.789063-2.6875 1.4375-5.621094 2.167968-8.582031 2.167968zm5.101562-35.125c-4.972656 7.4375-8.855468 13.648438-9.507812 15.582032-.726563 2.386718.648437 4.949218 3.0625 5.679687 2.398437.726563 4.964844-.625 5.699218-3.035156.527344-1.984375.746094-9.292969.746094-18.226563zm5.792969 20.191406h.066406zm0 0h.066406zm-6.53125-1.980468"/><path d="m149.730469 239.292969c-1.824219 6.027343-8.191407 9.433593-14.222657 7.605469-6.027343-1.828126-9.433593-8.195313-7.605468-14.222657 1.828125-6.027343 22.492187-34.894531 22.492187-34.894531s1.164063 35.480469-.664062 41.511719zm0 0" fill="#26bbec"/><path d="m138.839844 254.226562c-1.777344 0-3.566406-.261718-5.3125-.792968-4.660156-1.414063-8.492188-4.558594-10.785156-8.851563-2.300782-4.296875-2.789063-9.226562-1.375-13.886719 1.949218-6.417968 17.066406-27.933593 23.472656-36.886718 1.707031-2.378906 4.742187-3.394532 7.535156-2.558594 2.800781.847656 4.746094 3.382812 4.839844 6.308594.367187 11.003906 1 37.296875-.949219 43.707031-1.410156 4.660156-4.550781 8.496094-8.851563 10.792969-2.679687 1.4375-5.621093 2.167968-8.574218 2.167968zm5.09375-35.132812c-4.972656 7.441406-8.855469 13.652344-9.507813 15.589844-.34375 1.144531-.226562 2.378906.355469 3.460937.574219 1.078125 1.539062 1.867188 2.707031 2.222657 1.179688.359374 2.414063.234374 3.484375-.347657 1.082032-.574219 1.867188-1.527343 2.222656-2.691406.523438-1.992187.746094-9.300781.738282-18.234375zm0 0"/><path d="m121.21875 302.019531c-1.828125 6.027344-8.195312 9.433594-14.222656 7.605469-6.027344-1.824219-9.433594-8.191406-7.605469-14.21875 1.824219-6.03125 22.492187-34.894531 22.492187-34.894531s1.164063 35.476562-.664062 41.507812zm0 0" fill="#26bbec"/><path d="m110.292969 316.941406c-1.746094 0-3.519531-.246094-5.28125-.78125-4.65625-1.414062-8.492188-4.558594-10.785157-8.851562-2.300781-4.296875-2.785156-9.226563-1.375-13.886719 1.949219-6.414063 17.066407-27.933594 23.476563-36.886719 1.703125-2.382812 4.738281-3.394531 7.53125-2.558594 2.800781.84375 4.746094 3.386719 4.839844 6.308594.367187 11.007813 1 37.296875-.945313 43.710938-2.386718 7.867187-9.632812 12.945312-17.460937 12.945312zm5.128906-35.117187c-4.976563 7.4375-8.855469 13.652343-9.507813 15.585937-.347656 1.144532-.226562 2.378906.351563 3.460938.574219 1.078125 1.542969 1.867187 2.707031 2.222656 2.40625.734375 4.96875-.628906 5.707032-3.035156.527343-1.992188.746093-9.300782.742187-18.234375zm5.796875 20.195312h.066406zm0 0h.066406zm0 0"/></svg>