<svg height="512" viewBox="0 0 512 512" width="512" xmlns="http://www.w3.org/2000/svg"><g id="filled_outline" data-name="filled outline"><path d="m383.607 112.759a48.045 48.045 0 0 0 -55.1-31.8 72 72 0 0 0 -140.618-.914c-.6-.026-1.194-.045-1.8-.045a40 40 0 0 0 -39.389 33.094 60.01 60.01 0 0 0 -48.607 58.906 60 60 0 0 0 60 60h216a60 60 0 0 0 60-60 60.009 60.009 0 0 0 -50.486-59.241z" fill="#eaeae8"/><path d="m258.093 324.874-27.206 11.843a17.8 17.8 0 0 0 -9.538 22.645 17.8 17.8 0 0 0 16.077 11.473 17.8 17.8 0 0 0 18.313-16.382z" fill="#75c2d4"/><path d="m365.907 362.03-27.207 11.843a17.8 17.8 0 0 0 -9.537 22.645 17.8 17.8 0 0 0 16.077 11.473 17.8 17.8 0 0 0 18.313-16.382z" fill="#2fbbdf"/><g fill="#75c2d4"><path d="m96 360-27.206 11.843a17.8 17.8 0 0 0 -9.537 22.645 17.8 17.8 0 0 0 16.077 11.473 17.8 17.8 0 0 0 18.313-16.382z"/><path d="m440 266.03-27.206 11.843a17.8 17.8 0 0 0 -9.537 22.645 17.8 17.8 0 0 0 16.077 11.473 17.8 17.8 0 0 0 18.313-16.382z"/><path d="m274.093 418.03-27.206 11.843a17.8 17.8 0 0 0 -9.538 22.645 17.8 17.8 0 0 0 16.077 11.473 17.8 17.8 0 0 0 18.313-16.382z"/></g><path d="m336 272-27.206 11.843a17.8 17.8 0 0 0 -9.537 22.645 17.8 17.8 0 0 0 16.077 11.473 17.8 17.8 0 0 0 18.313-16.382z" fill="#2fbbdf"/><path d="m176 392-27.206 11.843a17.8 17.8 0 0 0 -9.537 22.645 17.8 17.8 0 0 0 16.077 11.473 17.8 17.8 0 0 0 18.313-16.382z" fill="#2fbbdf"/><path d="m184 266.03-27.206 11.843a17.8 17.8 0 0 0 -9.537 22.645 17.8 17.8 0 0 0 16.077 11.473 17.8 17.8 0 0 0 18.313-16.382z" fill="#2fbbdf"/><path d="m170.093 192h-24a8 8 0 1 1 0-16h24a8 8 0 0 1 0 16z" fill="#cbcbcb"/><path d="m258.093 192h-56a8 8 0 1 1 0-16h56a8 8 0 0 1 0 16z" fill="#cbcbcb"/><path d="m374.093 240h-216a68 68 0 0 1 -18.048-133.564 47.866 47.866 0 0 1 41.677-34.236 80 80 0 0 1 152.728-.078q1.82-.122 3.643-.122a55.931 55.931 0 0 1 51.4 33.763 68 68 0 0 1 -15.4 134.237zm-188-152a31.912 31.912 0 0 0 -31.513 26.466 8 8 0 0 1 -6.37 6.484 52 52 0 0 0 9.883 103.05h216a52 52 0 0 0 8.255-103.341 8 8 0 0 1 -6.327-5.36 39.955 39.955 0 0 0 -37.928-27.299 40.474 40.474 0 0 0 -8 .8 8 8 0 0 1 -9.412-6.178 64.27 64.27 0 0 0 -62.588-50.622 63.231 63.231 0 0 0 -40.2 14.211 64.272 64.272 0 0 0 -22.2 35.6 7.99 7.99 0 0 1 -8.143 6.226c-.485-.02-.969-.037-1.457-.037z"/><path d="m238.009 378.845c-.278 0-.556-.005-.837-.014a25.8 25.8 0 0 1 -9.478-49.449l27.206-11.843a8 8 0 0 1 11.167 7.97l-2.353 29.578a25.772 25.772 0 0 1 -25.705 23.758zm11.052-41.314-14.981 6.521a9.8 9.8 0 1 0 13.685 9.766z"/><path d="m345.824 416c-.278 0-.556 0-.837-.014a25.8 25.8 0 0 1 -9.479-49.449l27.206-11.837a8 8 0 0 1 11.168 7.97l-2.353 29.578a25.772 25.772 0 0 1 -25.705 23.752zm11.051-41.313-14.981 6.52a9.8 9.8 0 1 0 13.686 9.767z"/><path d="m75.917 413.97c-.279 0-.557 0-.837-.013a25.8 25.8 0 0 1 -9.48-49.449l27.206-11.843a8 8 0 0 1 11.168 7.97l-2.353 29.578a25.773 25.773 0 0 1 -25.704 23.757zm11.051-41.313-14.981 6.521a9.8 9.8 0 1 0 13.685 9.765z"/><path d="m419.917 320c-.279 0-.557 0-.837-.014a25.8 25.8 0 0 1 -9.479-49.449l27.206-11.837a8 8 0 0 1 11.168 7.97l-2.353 29.578a25.773 25.773 0 0 1 -25.705 23.752zm11.051-41.313-14.981 6.52a9.8 9.8 0 1 0 13.685 9.766z"/><path d="m254.009 472c-.278 0-.556 0-.837-.014a25.8 25.8 0 0 1 -9.478-49.449l27.206-11.837a8 8 0 0 1 11.167 7.97l-2.353 29.578a25.772 25.772 0 0 1 -25.705 23.752zm11.052-41.313-14.981 6.52a9.8 9.8 0 1 0 13.685 9.767z"/><path d="m315.917 325.97c-.279 0-.557 0-.837-.013a25.8 25.8 0 0 1 -9.479-49.449l27.206-11.843a8 8 0 0 1 11.168 7.97l-2.353 29.578a25.773 25.773 0 0 1 -25.705 23.757zm11.051-41.313-14.981 6.521a9.8 9.8 0 1 0 13.685 9.765z"/><path d="m155.917 445.97c-.279 0-.557 0-.837-.013a25.8 25.8 0 0 1 -9.479-49.449l27.206-11.843a8 8 0 0 1 11.168 7.97l-2.353 29.578a25.773 25.773 0 0 1 -25.705 23.757zm11.051-41.313-14.981 6.521a9.8 9.8 0 1 0 13.685 9.765z"/><path d="m163.917 320c-.279 0-.557 0-.837-.014a25.8 25.8 0 0 1 -9.479-49.449l27.206-11.837a8 8 0 0 1 11.168 7.97l-2.353 29.578a25.773 25.773 0 0 1 -25.705 23.752zm11.051-41.313-14.981 6.52a9.8 9.8 0 1 0 13.685 9.766z"/><path d="m170.093 192h-24a8 8 0 1 1 0-16h24a8 8 0 0 1 0 16z"/><path d="m258.093 192h-56a8 8 0 1 1 0-16h56a8 8 0 0 1 0 16z"/></g></svg>