<svg height="512" viewBox="0 0 512 512" width="512" xmlns="http://www.w3.org/2000/svg"><g id="flat"><path d="m383.607 112.759a48.045 48.045 0 0 0 -55.1-31.8 72 72 0 0 0 -140.618-.914c-.6-.026-1.194-.045-1.8-.045a40 40 0 0 0 -39.389 33.094 60.01 60.01 0 0 0 -48.607 58.906 60 60 0 0 0 60 60h216a60 60 0 0 0 60-60 60.009 60.009 0 0 0 -50.486-59.241z" fill="#eaeae8"/><path d="m258.093 324.874-27.206 11.843a17.8 17.8 0 0 0 -9.538 22.645 17.8 17.8 0 0 0 16.077 11.473 17.8 17.8 0 0 0 18.313-16.382z" fill="#75c2d4"/><path d="m365.907 362.03-27.207 11.843a17.8 17.8 0 0 0 -9.537 22.645 17.8 17.8 0 0 0 16.077 11.473 17.8 17.8 0 0 0 18.313-16.382z" fill="#2fbbdf"/><g fill="#75c2d4"><path d="m96 360-27.206 11.843a17.8 17.8 0 0 0 -9.537 22.645 17.8 17.8 0 0 0 16.077 11.473 17.8 17.8 0 0 0 18.313-16.382z"/><path d="m440 266.03-27.206 11.843a17.8 17.8 0 0 0 -9.537 22.645 17.8 17.8 0 0 0 16.077 11.473 17.8 17.8 0 0 0 18.313-16.382z"/><path d="m274.093 418.03-27.206 11.843a17.8 17.8 0 0 0 -9.538 22.645 17.8 17.8 0 0 0 16.077 11.473 17.8 17.8 0 0 0 18.313-16.382z"/></g><path d="m336 272-27.206 11.843a17.8 17.8 0 0 0 -9.537 22.645 17.8 17.8 0 0 0 16.077 11.473 17.8 17.8 0 0 0 18.313-16.382z" fill="#2fbbdf"/><path d="m176 392-27.206 11.843a17.8 17.8 0 0 0 -9.537 22.645 17.8 17.8 0 0 0 16.077 11.473 17.8 17.8 0 0 0 18.313-16.382z" fill="#2fbbdf"/><path d="m184 266.03-27.206 11.843a17.8 17.8 0 0 0 -9.537 22.645 17.8 17.8 0 0 0 16.077 11.473 17.8 17.8 0 0 0 18.313-16.382z" fill="#2fbbdf"/><path d="m170.093 192h-24a8 8 0 1 1 0-16h24a8 8 0 0 1 0 16z" fill="#cbcbcb"/><path d="m258.093 192h-56a8 8 0 1 1 0-16h56a8 8 0 0 1 0 16z" fill="#cbcbcb"/></g></svg>