<svg height="512pt" viewBox="-7 0 512 512.00193" width="512pt" xmlns="http://www.w3.org/2000/svg"><path d="m297.160156 220.03125c-.125 2.019531-1.003906 4.054688-2.789062 5.636719-39.121094 34.820312-96.863282 44.6875-146.925782 20.480469-64.847656-31.359376-93.214843-109.203126-63.644531-174.878907 13.648438-30.316406 37.078125-52.953125 64.789063-65.996093 3.730468-1.765626 7.527344-3.339844 11.402344-4.75 7.25-2.636719 13.859374 5.1875 10.101562 11.921874-37.867188 67.8125-9.714844 152.386719 58.363281 185.316407 19.449219 9.410156 40.0625 13.667969 60.273438 13.332031 5.324219-.09375 8.722656 4.433594 8.429687 8.9375zm0 0" fill="#f29500"/><path d="m297.160156 220.03125c-34.027344 14.207031-73.75 14.308594-109.539062-2.992188-64.839844-31.359374-93.21875-109.203124-63.648438-174.882812 6.304688-13.992188 14.691406-26.351562 24.617188-36.882812 3.730468-1.765626 7.527344-3.339844 11.402344-4.75 7.25-2.636719 13.859374 5.1875 10.101562 11.921874-37.867188 67.8125-9.714844 152.386719 58.363281 185.316407 19.449219 9.410156 40.0625 13.667969 60.273438 13.332031 5.324219-.09375 8.722656 4.433594 8.429687 8.9375zm0 0" fill="#ffb52d"/><path d="m421.441406 386.582031c6.765625 0 10.257813-8.238281 5.417969-13.078125l-6.398437-6.398437h15.394531c4.230469 0 7.660156-3.425781 7.660156-7.660157 0-4.230468-3.429687-7.660156-7.660156-7.660156h-15.394531l6.398437-6.398437c2.992187-2.992188 2.992187-7.839844 0-10.832031-2.992187-2.992188-7.84375-2.992188-10.835937 0l-6.394532 6.398437v-15.394531c0-4.234375-3.429687-7.660156-7.660156-7.660156-4.234375 0-7.664062 3.425781-7.664062 7.660156v15.394531l-6.394532-6.398437c-2.992187-2.992188-7.84375-2.992188-10.835937 0-2.992188 2.992187-2.992188 7.84375 0 10.832031l6.398437 6.398437h-15.394531c-4.230469 0-7.660156 3.429688-7.660156 7.660156 0 4.234376 3.429687 7.660157 7.660156 7.660157h15.394531l-6.398437 6.398437c-4.839844 4.839844-1.347657 13.078125 5.417969 13.078125 4.960937 0 6.589843-4.058593 11.8125-8.640625v15.394532c0 4.230468 3.429687 7.660156 7.664062 7.660156 4.230469 0 7.660156-3.429688 7.660156-7.660156v-15.394532c5.226563 4.585938 6.851563 8.640625 11.8125 8.640625zm0 0" fill="#97bffd"/><path d="m363.203125 439.113281h-15.394531l6.398437-6.394531c2.992188-2.992188 2.992188-7.84375 0-10.835938-2.992187-2.988281-7.84375-2.988281-10.835937 0l-6.394532 6.398438v-15.394531c0-4.234375-3.429687-7.660157-7.664062-7.660157-4.230469 0-7.660156 3.425782-7.660156 7.660157v15.394531l-6.394532-6.398438c-2.992187-2.992187-7.84375-2.992187-10.835937 0-2.992187 2.992188-2.992187 7.84375 0 10.835938l6.398437 6.394531h-15.394531c-4.230469 0-7.660156 3.429688-7.660156 7.660157 0 4.234374 3.429687 7.660156 7.660156 7.660156h15.394531l-6.398437 6.398437c-4.839844 4.839844-1.347656 13.078125 5.417969 13.078125 4.960937 0 6.589844-4.058594 11.8125-8.640625v15.394531c0 4.230469 3.429687 7.660157 7.660156 7.660157 4.234375 0 7.664062-3.429688 7.664062-7.660157v-15.394531c5.226563 4.585938 6.851563 8.640625 11.8125 8.640625 6.765626 0 10.257813-8.238281 5.417969-13.078125l-6.398437-6.398437h15.394531c4.230469 0 7.660156-3.429688 7.660156-7.660156 0-4.230469-3.429687-7.660157-7.660156-7.660157zm0 0" fill="#97bffd"/><path d="m489.632812 458.589844h-15.394531l6.398438-6.398438c2.992187-2.992187 2.992187-7.84375 0-10.832031-2.992188-2.992187-7.84375-2.992187-10.835938 0l-6.394531 6.394531v-15.394531c0-4.230469-3.429688-7.660156-7.660156-7.660156-4.230469 0-7.664063 3.429687-7.664063 7.660156v15.394531l-6.394531-6.394531c-2.992188-2.992187-7.84375-2.992187-10.835938 0-2.988281 2.992187-2.988281 7.839844 0 10.832031l6.398438 6.398438h-15.394531c-4.230469 0-7.660157 3.429687-7.660157 7.660156s3.429688 7.660156 7.660157 7.660156h15.394531l-6.398438 6.398438c-4.839843 4.839844-1.347656 13.078125 5.417969 13.078125 4.960938 0 6.589844-4.058594 11.8125-8.640625v15.394531c0 4.230469 3.433594 7.660156 7.664063 7.660156 4.230468 0 7.660156-3.429687 7.660156-7.660156v-15.394531c5.230469 4.585937 6.851562 8.640625 11.8125 8.640625 6.765625 0 10.257812-8.238281 5.417969-13.078125l-6.398438-6.398438h15.394531c4.230469 0 7.660157-3.429687 7.660157-7.660156s-3.429688-7.660156-7.660157-7.660156zm0 0" fill="#2476ed"/><path d="m179.160156 404.203125h-15.394531l6.398437-6.398437c2.992188-2.992188 2.992188-7.839844 0-10.832032-2.992187-2.992187-7.84375-2.992187-10.835937 0l-6.394531 6.398438v-15.394532c0-4.234374-3.429688-7.660156-7.664063-7.660156-4.230469 0-7.660156 3.425782-7.660156 7.660156v15.394532l-6.394531-6.398438c-2.992188-2.992187-7.84375-2.992187-10.835938 0-2.992187 2.992188-2.992187 7.84375 0 10.832032l6.398438 6.398437h-15.394532c-4.230468 0-7.660156 3.429687-7.660156 7.660156s3.429688 7.660157 7.660156 7.660157h15.394532l-6.398438 6.398437c-2.992187 2.992187-2.992187 7.84375 0 10.835937 2.992188 2.988282 7.84375 2.988282 10.835938 0l6.394531-6.398437v15.394531c0 4.230469 3.429687 7.660156 7.660156 7.660156 4.234375 0 7.664063-3.429687 7.664063-7.660156v-15.394531c5.226562 4.585937 6.851562 8.640625 11.8125 8.640625 6.765625 0 10.257812-8.238281 5.417968-13.078125l-6.398437-6.398437h15.394531c4.230469 0 7.660156-3.429688 7.660156-7.660157s-3.429687-7.660156-7.660156-7.660156zm0 0" fill="#2476ed"/><path d="m75.441406 462.789062h-15.394531l6.394531-6.394531c2.992188-2.996093 2.992188-7.84375 0-10.835937-2.988281-2.992188-7.839844-2.992188-10.832031 0l-6.398437 6.398437v-15.394531c0-4.234375-3.429688-7.664062-7.660157-7.664062s-7.660156 3.429687-7.660156 7.664062v15.394531l-6.398437-6.398437c-2.988282-2.992188-7.839844-2.992188-10.832032 0-2.992187 2.992187-2.992187 7.84375 0 10.835937l6.398438 6.394531h-15.398438c-4.230468 0-7.660156 3.429688-7.660156 7.660157 0 4.234375 3.429688 7.664062 7.660156 7.664062h15.394532l-6.394532 6.394531c-4.839844 4.839844-1.347656 13.078126 5.414063 13.078126 1.960937 0 3.921875-.746094 5.417969-2.242188l6.398437-6.398438v15.394532c0 4.234375 3.429687 7.660156 7.660156 7.660156s7.660157-3.425781 7.660157-7.660156v-15.394532c5.230468 4.589844 6.851562 8.640626 11.8125 8.640626 6.765624 0 10.257812-8.234376 5.417968-13.078126l-6.394531-6.394531h15.390625c4.230469 0 7.660156-3.429687 7.660156-7.660156 0-4.234375-3.425781-7.664063-7.65625-7.664063zm0 0" fill="#97bffd"/><path d="m425.847656 277.484375c-.304687 8.335937-7.402344 14.8125-15.738281 14.8125h-193.910156c-9.007813 0-23.371094-7.519531-30.152344-21.308594-2.347656-4.75-3.777344-10.265625-3.777344-16.464843 0-11.480469 4.800781-21.070313 12.09375-27.722657 11.746094-10.703125 29.957031-13.757812 44.960938-4.777343 1.542969.929687 3.523437.070312 3.871093-1.6875 3.496094-17.425782 15.78125-31.683594 32.03125-37.933594 5.753907-2.21875 11.992188-3.433594 18.519532-3.433594 23.371094 0 43.117187 15.566406 49.429687 36.882812.324219 1.082032 1.417969 1.726563 2.519531 1.503907 24.34375-4.933594 44.320313 18.648437 36.9375 41.324219-.460937 1.410156.582032 2.851562 2.0625 2.851562h25.792969c8.679688 0 15.6875 7.199219 15.359375 15.953125zm0 0" fill="#2476ed"/><path d="m314.625 292.296875h-98.425781c-9.007813 0-23.371094-7.519531-30.152344-21.308594-2.347656-4.75-3.777344-10.265625-3.777344-16.464843 0-11.480469 4.800781-21.070313 12.09375-27.722657 3.183594-.613281 6.472657-.9375 9.84375-.9375 6.527344 0 12.777344 1.214844 18.519531 3.429688 16.25 6.253906 28.539063 20.511719 32.03125 37.9375.347657 1.757812 2.339844 2.605469 3.871094 1.683593 21.71875-13 50.183594-.765624 55.996094 23.382813zm0 0" fill="#0956c6"/><path d="m301.453125 321.695312c0 6.207032-1.433594 11.714844-3.785156 16.472657-6.777344 13.789062-21.140625 21.300781-30.148438 21.300781h-193.90625c-8.335937 0-15.441406-6.476562-15.746093-14.804688-.320313-8.753906 6.679687-15.957031 15.367187-15.957031h25.789063c1.480468 0 2.523437-1.445312 2.0625-2.851562-7.382813-22.675781 12.589843-46.265625 36.929687-41.328125 1.105469.226562 2.203125-.417969 2.523437-1.503906 6.316407-21.316407 26.0625-36.878907 49.429688-36.878907 6.527344 0 12.769531 1.214844 18.515625 3.429688 16.25 6.253906 28.539063 20.507812 32.03125 37.933593.351563 1.761719 2.335937 2.613282 3.875 1.691407 24.308594-14.554688 57.0625 2.511719 57.0625 32.496093zm0 0" fill="#97bffd"/><path d="m301.453125 321.695312c0 6.207032-1.433594 11.714844-3.785156 16.472657h-161.511719c-8.339844 0-15.441406-6.476563-15.746094-14.808594-.320312-8.75 6.679688-15.957031 15.367188-15.957031h25.789062c1.480469 0 2.523438-1.441406 2.0625-2.847656-7.375-22.679688 12.589844-46.265626 36.929688-41.324219 1.101562.226562 2.199218-.414063 2.519531-1.496094 1.28125-4.320313 3.109375-8.402344 5.410156-12.160156 16.25 6.253906 28.535157 20.507812 32.027344 37.933593.355469 1.761719 2.335937 2.613282 3.875 1.691407 24.308594-14.554688 57.0625 2.511719 57.0625 32.496093zm0 0" fill="#b9d3fd"/></svg>