<svg height="512" viewBox="0 0 512 512" width="512" xmlns="http://www.w3.org/2000/svg"><g id="Cloud_Snow_Sunny" data-name="Cloud Snow Sunny"><g id="Flat"><circle cx="360" cy="152" fill="#ffd740" r="96"/><path d="m412.954 71.921a96.019 96.019 0 0 1 -145.908 104.158 96.011 96.011 0 1 0 145.908-104.158z" fill="#ffc400"/><g fill="#ffe7a4"><path d="m504 160h-16a8 8 0 0 1 0-16h16a8 8 0 0 1 0 16z"/><path d="m360 32a8 8 0 0 1 -8-8v-16a8 8 0 0 1 16 0v16a8 8 0 0 1 -8 8z"/><path d="m450.51 69.49a8 8 0 0 1 -5.657-13.657l11.313-11.313a8 8 0 0 1 11.314 11.313l-11.313 11.314a7.976 7.976 0 0 1 -5.657 2.343z"/><path d="m269.49 69.49a7.976 7.976 0 0 1 -5.657-2.343l-11.313-11.314a8 8 0 0 1 11.314-11.313l11.313 11.313a8 8 0 0 1 -5.657 13.657z"/><path d="m493.144 214.846a7.967 7.967 0 0 1 -3.044-.6l-14.794-6.094a8 8 0 1 1 6.093-14.793l14.794 6.093a8 8 0 0 1 -3.049 15.4z"/><path d="m241.644 111.251a7.97 7.97 0 0 1 -3.044-.605l-14.794-6.093a8 8 0 0 1 6.094-14.794l14.794 6.094a8 8 0 0 1 -3.05 15.4z"/><path d="m311.48 41.556a8 8 0 0 1 -7.406-4.97l-6.065-14.806a8 8 0 0 1 14.806-6.065l6.066 14.806a8 8 0 0 1 -7.4 11.035z"/><path d="m408.52 41.556a8 8 0 0 1 -7.4-11.035l6.066-14.806a8 8 0 0 1 14.806 6.065l-6.065 14.806a8 8 0 0 1 -7.407 4.97z"/><path d="m478.355 111.251a8 8 0 0 1 -3.049-15.4l14.794-6.092a8 8 0 1 1 6.093 14.794l-14.793 6.093a7.97 7.97 0 0 1 -3.045.605z"/></g><path d="m428 456h-316c-30.3 0-58.309-10.12-78.87-28.5-21.364-19.09-33.13-45.9-33.13-75.5 0-49.015 31.189-94.479 74.831-110.1a148.044 148.044 0 0 1 51.631-86.547c27.882-22.797 63.938-35.353 101.538-35.353 47.7 0 91.467 20.357 120.713 56h11.287a97.6 97.6 0 0 1 71.754 30.626c18.286 19.374 28.355 45.428 28.355 73.374a70.838 70.838 0 0 1 -2.391 19.121c32.309 13.712 54.282 44.361 54.282 76.879a77.6 77.6 0 0 1 -24.82 57.606c-15.574 14.441-36.591 22.394-59.18 22.394z" fill="#ededed"/><path d="m457.718 299.121a70.838 70.838 0 0 0 2.391-19.121c0-27.946-10.069-54-28.355-73.374a96.944 96.944 0 0 0 -33.008-22.926c-11.91 133.582-109.079 242.624-236.725 272.3h265.979c22.589 0 43.606-7.953 59.18-22.394a77.6 77.6 0 0 0 24.82-57.606c0-32.518-21.973-63.167-54.282-76.879z" fill="#e2e2e2"/><path d="m40 360a8 8 0 0 1 -8-8c0-36.4 24.426-71.238 56.817-81.026a8 8 0 1 1 4.628 15.316c-25.908 7.829-45.445 36.078-45.445 65.71a8 8 0 0 1 -8 8z" fill="#e2e2e2"/><path d="m420.109 288a8 8 0 0 1 -8-8c0-31.925-22.4-56-52.109-56a8 8 0 0 1 0-16c38.829 0 68.109 30.953 68.109 72a8 8 0 0 1 -8 8z" fill="#d3d3d3"/><path d="m264 288a8 8 0 0 1 -8-8 104.118 104.118 0 0 1 104-104 8 8 0 0 1 0 16 88.1 88.1 0 0 0 -88 88 8 8 0 0 1 -8 8z" fill="#e2e2e2"/><path d="m376 375.986h-.028a7.988 7.988 0 0 1 -7.972-7.986 80.413 80.413 0 0 1 10.027-35.922c9.258-16.459 28.913-36.078 69.973-36.078a8 8 0 0 1 0 16c-62.889 0-63.984 53.74-64 56.027a8.012 8.012 0 0 1 -8 7.959z" fill="#d3d3d3"/><circle cx="264" cy="416" fill="#4dd0e1" r="8"/><path d="m256 371.314v12.686a8 8 0 0 0 16 0v-12.686l21.657-21.657a8 8 0 0 0 -11.314-11.314l-10.343 10.343v-20.686a8 8 0 0 0 -16 0v20.687l-10.343-10.344a8 8 0 0 0 -11.314 11.314z" fill="#4dd0e1"/><path d="m272 460.686v-12.686a8 8 0 0 0 -16 0v12.686l-21.657 21.657a8 8 0 0 0 11.314 11.314l10.343-10.344v20.687a8 8 0 0 0 16 0v-20.686l10.343 10.343a8 8 0 0 0 11.314-11.314z" fill="#4dd0e1"/><path d="m232 424a8 8 0 0 0 0-16h-12.687l-21.656-21.657a8 8 0 0 0 -11.314 11.314l10.344 10.343h-20.687a8 8 0 0 0 0 16h20.687l-10.344 10.343a8 8 0 0 0 11.314 11.314l21.656-21.657z" fill="#4dd0e1"/><path d="m352 408h-20.686l10.343-10.343a8 8 0 0 0 -11.314-11.314l-21.657 21.657h-12.686a8 8 0 0 0 0 16h12.686l21.657 21.657a8 8 0 0 0 11.314-11.314l-10.343-10.343h20.686a8 8 0 0 0 0-16z" fill="#4dd0e1"/><path d="m225.941 389.657a8 8 0 1 0 11.314-11.314l-16-16a8 8 0 0 0 -11.314 11.314z" fill="#4dd0e1"/><path d="m289.94 389.657a8 8 0 0 0 11.315 0l16-16a8 8 0 0 0 -11.315-11.314l-16 16a8 8 0 0 0 0 11.314z" fill="#4dd0e1"/><path d="m237.255 442.343a8 8 0 0 0 -11.314 0l-16 16a8 8 0 0 0 11.314 11.314l16-16a8 8 0 0 0 0-11.314z" fill="#4dd0e1"/><path d="m301.255 442.343a8 8 0 1 0 -11.315 11.314l16 16a8 8 0 0 0 11.315-11.314z" fill="#4dd0e1"/><circle cx="92" cy="364" fill="#fff" r="12"/><circle cx="388" cy="132" fill="#ffe7a4" r="12"/><circle cx="352" cy="96" fill="#ffe7a4" r="24"/><circle cx="196" cy="228" fill="#fff" r="12"/><circle cx="160" cy="192" fill="#fff" r="24"/></g></g></svg>