<svg height="474pt" viewBox="-5 0 474 474.90425" width="474pt" xmlns="http://www.w3.org/2000/svg"><path d="m273.910156.03125c93.398438 68.785156 121.640625 195.980469 66.132813 297.832031-55.507813 101.847657-177.707031 147.050781-286.132813 105.839844 72.207032 72.9375 182.808594 91.886719 275.179688 47.140625 92.371094-44.742188 146.0625-143.273438 133.59375-245.148438-12.46875-101.878906-88.339844-184.550781-188.773438-205.695312zm0 0" fill="#e6e7e8"/><path d="m88.613281 413.863281c40.71875 36.5625 92.78125 58.003907 147.4375 60.722657-3.839843.238281-7.679687.316406-11.597656.316406-64.101563.09375-125.550781-25.558594-170.5625-71.199219 11.265625 4.363281 22.882813 7.761719 34.722656 10.160156zm0 0" fill="#cacbcc"/><path d="m392.453125 186.902344c0 128.132812-103.871094 232-232 232-4.082031 0-8.082031-.078125-12.082031-.316406 97.921875-5.0625 182.085937-71.132813 210.253906-165.050782 28.164062-93.917968-5.753906-195.402344-84.734375-253.5117185 13.046875 2.7031245 25.835937 6.5039065 38.242187 11.3593745 51.050782 44.023438 80.378907 108.109376 80.320313 175.519532zm0 0" fill="#cacbcc"/><path d="m.453125 82.902344c-.015625 2.734375.46875 5.445312 1.4375 8h117.121094c.96875-2.554688 1.457031-5.265625 1.441406-8 0-13.253906-10.746094-24-24-24 0-17.671875-14.328125-32-32-32s-32 14.328125-32 32c0 .480468.160156 1.042968.160156 1.523437-2.605469-.996093-5.371093-1.511719-8.160156-1.523437-13.253906 0-24 10.746094-24 24zm0 0" fill="#a7a9ac"/><path d="m56.453125 58.902344c0 .480468.160156 1.042968.160156 1.523437-2.605469-.996093-5.371093-1.511719-8.160156-1.523437-13.253906 0-24 10.746094-24 24-.015625 2.734375.46875 5.445312 1.4375 8h-24c-.96875-2.554688-1.453125-5.265625-1.4375-8 0-13.253906 10.746094-24 24-24 2.789063.011718 5.554687.527344 8.160156 1.523437 0-.480469-.160156-1.042969-.160156-1.523437 0-17.671875 14.328125-32 32-32 4.121094-.03125 8.207031.785156 12 2.402344-12.097656 4.839843-20.023437 16.570312-20 29.597656zm0 0" fill="#8d8f91"/><path d="m352.453125 106.902344c-8.886719.03125-17.5 3.050781-24.464844 8.570312-3.71875-31.332031-29.714843-55.28125-61.246093-56.417968-31.53125-1.136719-59.1875 20.875-65.152344 51.855468-5.339844-2.601562-11.195313-3.972656-17.136719-4.007812-22.09375 0-40 17.910156-40 40h248c0-22.089844-17.910156-40-40-40zm0 0" fill="#d1d3d4"/><path d="m184.453125 106.902344c4-.019532 7.972656.628906 11.757813 1.921875-16.539063 5.316406-27.757813 20.703125-27.757813 38.078125h-24c0-22.089844 17.90625-40 40-40zm0 0" fill="#b8b9ba"/><path d="m264.453125 58.902344c4.023437.011718 8.042969.386718 12 1.121094-25.761719 4.949218-45.894531 25.113281-50.800781 50.878906-5.367188-2.589844-11.242188-3.953125-17.199219-4-2.011719-.003906-4.015625.15625-6 .480468 7.066406-28.488281 32.648437-48.488281 62-48.480468zm0 0" fill="#b8b9ba"/><path d="m248.453125 338.902344c.082031-15.289063-8.609375-29.277344-22.351563-35.976563-13.746093-6.703125-30.117187-4.933593-42.113281 4.546875-3.71875-31.332031-29.714843-55.28125-61.246093-56.417968-31.53125-1.136719-59.1875 20.875-65.152344 51.855468-5.339844-2.601562-11.195313-3.972656-17.136719-4.007812-22.09375 0-40 17.910156-40 40zm0 0" fill="#a7a9ac"/><path d="m40.453125 298.902344c4-.019532 7.972656.628906 11.757813 1.921875-16.539063 5.316406-27.757813 20.703125-27.757813 38.078125h-24c0-22.089844 17.90625-40 40-40zm0 0" fill="#8d8f91"/><path d="m132.453125 252.023438c-25.761719 4.949218-45.894531 25.113281-50.800781 50.878906-5.367188-2.589844-11.242188-3.953125-17.199219-4-2.011719-.003906-4.015625.15625-6 .480468 7.066406-28.488281 32.648437-48.488281 62-48.480468 4.023437.011718 8.042969.386718 12 1.121094zm0 0" fill="#8d8f91"/><path d="m120.453125 218.902344h-16c0-7.347656 3.367187-14.292969 9.140625-18.84375 5.773438-4.550782 13.3125-6.207032 20.457031-4.492188 6.449219-7.785156 17.089844-10.683594 26.597657-7.246094 9.503906 3.4375 15.828124 12.476563 15.804687 22.582032h-16c-.078125-3.84375-2.878906-7.089844-6.671875-7.726563s-7.5 1.511719-8.832031 5.121094c-.820313 2.335937-2.671875 4.160156-5.019531 4.941406-2.347657.78125-4.925782.433594-6.980469-.941406-2.449219-1.664063-5.617188-1.839844-8.238281-.457031-2.617188 1.386718-4.253907 4.101562-4.257813 7.0625zm0 0" fill="#57565c"/></svg>