<?xml version="1.0" encoding="iso-8859-1"?>
<!-- Generator: Adobe Illustrator 19.0.0, SVG Export Plug-In . SVG Version: 6.00 Build 0)  -->
<svg version="1.1" id="Capa_1" xmlns="http://www.w3.org/2000/svg" xmlns:xlink="http://www.w3.org/1999/xlink" x="0px" y="0px"
	 viewBox="0 0 464 464" style="enable-background:new 0 0 464 464;" xml:space="preserve">
<path style="fill:#ADF0FF;" d="M48,79.985c5.791,0.01,11.533,1.073,16.944,3.136c-0.599-3.683-0.915-7.406-0.944-11.136
	c0.015-39.764,32.262-71.988,72.027-71.973c26.616,0.01,51.056,14.703,63.549,38.205c23.029-26.762,63.393-29.788,90.155-6.759
	c12.626,10.865,20.513,26.23,21.981,42.823c25.242-17.872,60.192-11.897,78.064,13.345s11.897,60.192-13.345,78.064
	c-9.481,6.713-20.815,10.311-32.431,10.296H48c-26.51,0-48-21.49-48-48S21.49,79.985,48,79.985z"/>
<circle style="fill:#75E6FF;" cx="160" cy="287.988" r="24"/>
<path style="fill:#505968;" d="M120,255.985c-2.122,0-4.156-0.844-5.656-2.344l-40-40c-3.069-3.178-2.981-8.243,0.197-11.312
	c3.1-2.994,8.015-2.994,11.115,0l40,40c3.124,3.125,3.123,8.19-0.002,11.314C124.154,255.142,122.121,255.984,120,255.985
	L120,255.985z"/>
<circle style="fill:#75E6FF;" cx="440" cy="439.988" r="24"/>
<path style="fill:#505968;" d="M400,407.985c-2.122,0-4.156-0.844-5.656-2.344l-40-40c-3.07-3.178-2.982-8.242,0.196-11.312
	c3.1-2.995,8.016-2.995,11.116,0l40,40c3.124,3.125,3.123,8.19-0.002,11.314C404.155,407.142,402.121,407.984,400,407.985z"/>
<circle style="fill:#75E6FF;" cx="400" cy="279.988" r="24"/>
<path style="fill:#505968;" d="M360,247.985c-2.122,0-4.156-0.844-5.656-2.344l-32-32c-3.069-3.178-2.982-8.243,0.196-11.312
	c3.1-2.994,8.015-2.994,11.116,0l32,32c3.124,3.125,3.123,8.19-0.002,11.314C364.155,247.142,362.121,247.984,360,247.985z"/>
<circle style="fill:#75E6FF;" cx="304" cy="327.988" r="24"/>
<path style="fill:#505968;" d="M264,295.985c-2.122,0-4.156-0.844-5.656-2.344l-56-56c-3.069-3.178-2.981-8.243,0.197-11.312
	c3.1-2.994,8.015-2.994,11.115,0l56,56c3.124,3.125,3.123,8.19-0.002,11.314C268.155,295.142,266.121,295.984,264,295.985z"/>
<circle style="fill:#75E6FF;" cx="256" cy="439.988" r="24"/>
<path style="fill:#505968;" d="M216,407.985c-2.122,0-4.156-0.844-5.656-2.344l-40-40c-3.07-3.178-2.982-8.242,0.196-11.312
	c3.1-2.994,8.015-2.994,11.116,0l40,40c3.124,3.125,3.123,8.19-0.002,11.314C220.154,407.142,218.121,407.984,216,407.985
	L216,407.985z"/>
<g>
</g>
<g>
</g>
<g>
</g>
<g>
</g>
<g>
</g>
<g>
</g>
<g>
</g>
<g>
</g>
<g>
</g>
<g>
</g>
<g>
</g>
<g>
</g>
<g>
</g>
<g>
</g>
<g>
</g>
</svg>
