<?xml version="1.0" encoding="iso-8859-1"?>
<!-- Generator: Adobe Illustrator 19.0.0, SVG Export Plug-In . SVG Version: 6.00 Build 0)  -->
<svg version="1.1" id="Capa_1" xmlns="http://www.w3.org/2000/svg" xmlns:xlink="http://www.w3.org/1999/xlink" x="0px" y="0px"
	 viewBox="0 0 472.027 472.027" style="enable-background:new 0 0 472.027 472.027;" xml:space="preserve">
<path style="fill:#A6ADB9;" d="M412.219,112.027c-8.577,0.008-17.037,1.995-24.72,5.808c-5.523-43.729-45.45-74.702-89.179-69.179
	c-11.353,1.434-22.266,5.293-31.997,11.315c-24.295-52.008-86.15-74.473-138.158-50.179C91.57,26.888,68.193,63.636,68.219,104.027
	c0,2.936,0.2,5.824,0.44,8.704c-30.54-4.884-59.256,15.915-64.14,46.455s15.915,59.256,46.455,64.14
	c3.057,0.489,6.149,0.723,9.245,0.701h352c30.928,0,56-25.072,56-56S443.147,112.027,412.219,112.027L412.219,112.027z"/>
<g>
	<path style="fill:#75E6FF;" d="M116.219,368.027h-12.688l10.344-10.344c3.07-3.178,2.982-8.242-0.196-11.312
		c-3.1-2.994-8.015-2.994-11.116,0l-10.344,10.344v-12.688c0-4.418-3.582-8-8-8s-8,3.582-8,8v12.688l-10.344-10.344
		c-3.178-3.069-8.243-2.982-11.312,0.196c-2.994,3.1-2.994,8.015,0,11.116l10.344,10.344H52.219c-4.418,0-8,3.582-8,8s3.582,8,8,8
		h12.688l-10.344,10.344c-3.178,3.07-3.266,8.134-0.196,11.312s8.134,3.266,11.312,0.196c0.067-0.064,0.132-0.13,0.196-0.196
		l10.344-10.344v12.688c0,4.418,3.582,8,8,8s8-3.582,8-8v-12.688l10.344,10.344c3.178,3.069,8.243,2.982,11.312-0.196
		c2.994-3.1,2.994-8.015,0-11.116l-10.344-10.344h12.688c4.418,0,8-3.582,8-8S120.637,368.027,116.219,368.027z"/>
	<path style="fill:#75E6FF;" d="M297.875,306.371l-10.344-10.344h12.688c4.418,0,8-3.582,8-8s-3.582-8-8-8h-12.688l10.344-10.344
		c3.07-3.178,2.982-8.242-0.196-11.312c-3.1-2.995-8.016-2.995-11.116,0l-10.344,10.344v-12.688c0-4.418-3.582-8-8-8s-8,3.582-8,8
		v12.688l-10.344-10.344c-3.178-3.07-8.242-2.982-11.312,0.196c-2.995,3.1-2.995,8.016,0,11.116l10.344,10.344h-12.688
		c-4.418,0-8,3.582-8,8s3.582,8,8,8h12.688l-10.344,10.344c-3.178,3.07-3.266,8.134-0.196,11.312s8.134,3.266,11.312,0.196
		c0.066-0.064,0.132-0.129,0.196-0.196l10.344-10.344v12.688c0,4.418,3.582,8,8,8s8-3.582,8-8v-12.688l10.344,10.344
		c3.178,3.07,8.242,2.982,11.312-0.196C300.87,314.387,300.87,309.472,297.875,306.371z"/>
	<path style="fill:#75E6FF;" d="M252.219,408.027h-12.688l10.344-10.344c3.07-3.178,2.982-8.242-0.196-11.312
		c-3.1-2.995-8.016-2.995-11.116,0l-10.344,10.344v-12.688c0-4.418-3.582-8-8-8s-8,3.582-8,8v12.688l-10.344-10.344
		c-3.178-3.069-8.243-2.982-11.312,0.196c-2.994,3.1-2.994,8.015,0,11.116l10.344,10.344h-12.688c-4.418,0-8,3.582-8,8s3.582,8,8,8
		h12.688l-10.344,10.344c-3.178,3.069-3.266,8.134-0.196,11.312c3.069,3.178,8.134,3.266,11.312,0.196
		c0.067-0.064,0.132-0.13,0.196-0.196l10.344-10.344v12.688c0,4.418,3.582,8,8,8s8-3.582,8-8v-12.688l10.344,10.344
		c3.178,3.07,8.242,2.982,11.312-0.196c2.995-3.1,2.995-8.016,0-11.116l-10.344-10.344h12.688c4.418,0,8-3.582,8-8
		S256.637,408.027,252.219,408.027z"/>
	<path style="fill:#75E6FF;" d="M420.219,360.027h-12.688l10.344-10.344c3.07-3.178,2.982-8.242-0.196-11.312
		c-3.1-2.995-8.016-2.995-11.116,0l-10.344,10.344v-12.688c0-4.418-3.582-8-8-8s-8,3.582-8,8v12.688l-10.344-10.344
		c-3.178-3.07-8.242-2.982-11.312,0.196c-2.995,3.1-2.995,8.016,0,11.116l10.344,10.344h-12.688c-4.418,0-8,3.582-8,8s3.582,8,8,8
		h12.688l-10.344,10.344c-3.178,3.07-3.266,8.134-0.196,11.312c3.07,3.178,8.134,3.266,11.312,0.196
		c0.066-0.064,0.132-0.129,0.196-0.196l10.344-10.344v12.688c0,4.418,3.582,8,8,8s8-3.582,8-8v-12.688l10.344,10.344
		c3.178,3.07,8.242,2.982,11.312-0.196c2.995-3.1,2.995-8.016,0-11.116l-10.344-10.344h12.688c4.418,0,8-3.582,8-8
		S424.637,360.027,420.219,360.027z"/>
</g>
<g>
	<path style="fill:#1598FC;" d="M164.219,248.027c-4.418,0-8,3.582-8,8v32c0,4.418,3.582,8,8,8s8-3.582,8-8v-32
		C172.219,251.609,168.637,248.027,164.219,248.027z"/>
	<path style="fill:#1598FC;" d="M204.219,360.027c4.418,0,8-3.582,8-8v-32c0-4.418-3.582-8-8-8s-8,3.582-8,8v32
		C196.219,356.446,199.801,360.027,204.219,360.027z"/>
	<path style="fill:#1598FC;" d="M36.219,304.027c4.418,0,8-3.582,8-8v-32c0-4.418-3.582-8-8-8s-8,3.582-8,8v32
		C28.219,300.446,31.801,304.027,36.219,304.027z"/>
	<path style="fill:#1598FC;" d="M108.219,320.027c4.418,0,8-3.582,8-8v-32c0-4.418-3.582-8-8-8s-8,3.582-8,8v32
		C100.219,316.446,103.801,320.027,108.219,320.027z"/>
	<path style="fill:#1598FC;" d="M148.219,408.027c-4.418,0-8,3.582-8,8v32c0,4.418,3.582,8,8,8s8-3.582,8-8v-32
		C156.219,411.609,152.637,408.027,148.219,408.027z"/>
	<path style="fill:#1598FC;" d="M356.219,312.027c4.418,0,8-3.582,8-8v-32c0-4.418-3.582-8-8-8s-8,3.582-8,8v32
		C348.219,308.446,351.801,312.027,356.219,312.027z"/>
	<path style="fill:#1598FC;" d="M420.219,248.027c-4.418,0-8,3.582-8,8v32c0,4.418,3.582,8,8,8s8-3.582,8-8v-32
		C428.219,251.609,424.637,248.027,420.219,248.027z"/>
	<path style="fill:#1598FC;" d="M36.219,424.027c-4.418,0-8,3.582-8,8v32c0,4.418,3.582,8,8,8s8-3.582,8-8v-32
		C44.219,427.609,40.637,424.027,36.219,424.027z"/>
	<path style="fill:#1598FC;" d="M308.219,344.027c-4.418,0-8,3.582-8,8v32c0,4.418,3.582,8,8,8s8-3.582,8-8v-32
		C316.219,347.609,312.637,344.027,308.219,344.027z"/>
	<path style="fill:#1598FC;" d="M332.219,424.027c-4.418,0-8,3.582-8,8v32c0,4.418,3.582,8,8,8s8-3.582,8-8v-32
		C340.219,427.609,336.637,424.027,332.219,424.027z"/>
	<path style="fill:#1598FC;" d="M444.219,408.027c-4.418,0-8,3.582-8,8v32c0,4.418,3.582,8,8,8s8-3.582,8-8v-32
		C452.219,411.609,448.637,408.027,444.219,408.027z"/>
</g>
<g>
</g>
<g>
</g>
<g>
</g>
<g>
</g>
<g>
</g>
<g>
</g>
<g>
</g>
<g>
</g>
<g>
</g>
<g>
</g>
<g>
</g>
<g>
</g>
<g>
</g>
<g>
</g>
<g>
</g>
</svg>
