<svg id="Fill_Outline" height="512" viewBox="0 0 64 64" width="512" xmlns="http://www.w3.org/2000/svg" data-name="Fill Outline"><path d="m55.615 17.935a12 12 0 0 0 -11.652-8.984c-.332 0-.658.026-.983.054a14.968 14.968 0 0 0 -25.54 2.62 11 11 0 1 0 4.365 18.214 14.935 14.935 0 0 0 16.139 1.452 11.965 11.965 0 0 0 14.615-1.919 6 6 0 1 0 3.056-11.437z" fill="#57b7eb"/><path d="m54 28c-.087 0-.17-.014-.256-.016.007-.01.015-.019.023-.029-.019.01-.039.018-.058.027a8.969 8.969 0 0 1 -3.933-1.036 6.038 6.038 0 0 0 1.761 1.937 19.761 19.761 0 0 1 -6.537 1.117 19.565 19.565 0 0 1 -4.388-.506 15.083 15.083 0 0 0 4.033-5.289 29.871 29.871 0 0 1 -12.645 2.795 29.852 29.852 0 0 1 -15.173-4.123 14.979 14.979 0 0 0 2.191 4.123h-.018a19.951 19.951 0 0 1 -15.677-7.6 10.988 10.988 0 0 0 18.433 10.39 14.91 14.91 0 0 0 16.144 1.516 11.785 11.785 0 0 0 6.1 1.694 11.92 11.92 0 0 0 8.489-3.56 5.979 5.979 0 0 0 8.465-4.727 8.982 8.982 0 0 1 -6.954 3.287z" fill="#4891d3"/><path d="m33 24-10 18h7l-2 12 10-18h-6z" fill="#f9e109"/><path d="m57 45a3.987 3.987 0 0 0 -7.474-1.947 3.035 3.035 0 0 0 -.526-.053 3 3 0 0 0 0 6 2.964 2.964 0 0 0 1.836-.644 3.943 3.943 0 0 0 4.56-.171 2 2 0 1 0 1.604-3.185z" fill="#57b7eb"/><path d="m16 41a3.035 3.035 0 0 0 -.526.053 3.966 3.966 0 0 0 -6.948 0 3.035 3.035 0 0 0 -.526-.053 3 3 0 0 0 0 6 2.964 2.964 0 0 0 1.836-.644 3.958 3.958 0 0 0 4.328 0 2.964 2.964 0 0 0 1.836.644 3 3 0 0 0 0-6z" fill="#57b7eb"/><path d="m57.4 46.185a3.943 3.943 0 0 1 -4.56.171 2.964 2.964 0 0 1 -1.84.644 2.96 2.96 0 0 1 -2.86-3.86 2.991 2.991 0 1 0 2.7 5.216 3.943 3.943 0 0 0 4.56-.171 2 2 0 0 0 3.6-1.185 1.994 1.994 0 0 1 -1.6-.815z" fill="#4891d3"/><path d="m18 45a2.964 2.964 0 0 1 -1.836-.644 3.958 3.958 0 0 1 -4.328 0 2.964 2.964 0 0 1 -1.836.644 2.96 2.96 0 0 1 -2.86-3.86 2.991 2.991 0 1 0 2.7 5.216 3.958 3.958 0 0 0 4.328 0 2.968 2.968 0 0 0 4.7-1.5 2.983 2.983 0 0 1 -.868.144z" fill="#4891d3"/><path d="m33 40h-7l7-16-10 18h7l-2 12z" fill="#fcbc04"/><g fill="#39519d"><path d="m34.736 41.874a1 1 0 0 0 1.36-.388l2.778-5a1 1 0 0 0 -.874-1.486h-4.913l.913-10.917a1 1 0 0 0 -1.871-.569l-10 18a1 1 0 0 0 .871 1.486h5.819l-1.8 10.835a1 1 0 0 0 1.86.651l5.556-10a1 1 0 0 0 -1.748-.972l-2.744 4.938 1.048-6.287a1 1 0 0 0 -.991-1.165h-5.3l6.918-12.453-.618 7.37a1 1 0 0 0 1 1.083h4.3l-1.952 3.514a1 1 0 0 0 .388 1.36z"/><path d="m57.927 44.146a4.984 4.984 0 0 0 -8.905-2.146h-.022a4 4 0 0 0 0 8 3.911 3.911 0 0 0 1.878-.479 4.983 4.983 0 0 0 4.392-.078 3 3 0 1 0 2.657-5.3zm-.927 3.854a.989.989 0 0 1 -.8-.41 1 1 0 0 0 -1.406-.2 2.99 2.99 0 0 1 -3.415.131 1 1 0 0 0 -1.158.051 1.981 1.981 0 0 1 -1.221.428 2 2 0 0 1 0-4 1.912 1.912 0 0 1 .349.038 1.007 1.007 0 0 0 1.048-.495 2.988 2.988 0 0 1 5.603 1.457 1 1 0 0 0 1 1 1 1 0 0 1 0 2z"/><path d="m15.978 40a4.956 4.956 0 0 0 -7.956 0h-.022a4 4 0 0 0 0 8 3.911 3.911 0 0 0 1.878-.479 4.946 4.946 0 0 0 2.122.479 1 1 0 0 0 0-2 2.987 2.987 0 0 1 -1.621-.483 1 1 0 0 0 -1.158.051 1.981 1.981 0 0 1 -1.221.432 2 2 0 0 1 0-4 1.912 1.912 0 0 1 .349.038 1 1 0 0 0 1.051-.495 2.967 2.967 0 0 1 5.206 0 1 1 0 0 0 1.048.495 1.912 1.912 0 0 1 .346-.038 2 2 0 0 1 0 4 1 1 0 0 0 0 2 4 4 0 1 0 -.022-8z"/><path d="m49.9 55.447 1-2a1 1 0 0 0 -1.79-.894l-1 2a1 1 0 0 0 1.79.894z"/><path d="m44.9 55.447 1-2a1 1 0 0 0 -1.79-.894l-1 2a1 1 0 0 0 1.79.894z"/><path d="m39.9 55.447 1-2a1 1 0 0 0 -1.79-.894l-1 2a1 1 0 0 0 1.79.894z"/><path d="m51.447 58.105a1 1 0 0 0 -1.342.448l-1 2a1 1 0 0 0 1.79.894l1-2a1 1 0 0 0 -.448-1.342z"/><path d="m46.447 58.105a1 1 0 0 0 -1.342.448l-1 2a1 1 0 0 0 1.79.894l1-2a1 1 0 0 0 -.448-1.342z"/><path d="m41.447 58.105a1 1 0 0 0 -1.342.448l-1 2a1 1 0 0 0 1.79.894l1-2a1 1 0 0 0 -.448-1.342z"/><path d="m17.447 50.105a1 1 0 0 0 -1.342.448l-1 2a1 1 0 0 0 1.79.894l1-2a1 1 0 0 0 -.448-1.342z"/><path d="m12.447 50.105a1 1 0 0 0 -1.342.448l-1 2a1 1 0 0 0 1.79.894l1-2a1 1 0 0 0 -.448-1.342z"/><path d="m7.447 50.105a1 1 0 0 0 -1.342.448l-1 2a1 1 0 0 0 1.79.894l1-2a1 1 0 0 0 -.448-1.342z"/><path d="m14.447 56.105a1 1 0 0 0 -1.342.448l-1 2a1 1 0 0 0 1.79.894l1-2a1 1 0 0 0 -.448-1.342z"/><path d="m9.447 56.105a1 1 0 0 0 -1.342.448l-1 2a1 1 0 0 0 1.79.894l1-2a1 1 0 0 0 -.448-1.342z"/><path d="m54.105 34.553-1 2a1 1 0 0 0 1.79.894l1-2a1 1 0 0 0 -1.79-.894z"/><path d="m47.105 36.553-1 2a1 1 0 0 0 1.79.894l1-2a1 1 0 0 0 -1.79-.894z"/><path d="m42.105 36.553-1 2a1 1 0 0 0 1.79.894l1-2a1 1 0 0 0 -1.79-.894z"/><path d="m38.553 45.9a1 1 0 0 0 1.342-.448l1-2a1 1 0 0 0 -1.79-.894l-1 2a1 1 0 0 0 .448 1.342z"/><path d="m37.447 48.105a1 1 0 0 0 -1.342.448l-1 2a1 1 0 0 0 1.79.894l1-2a1 1 0 0 0 -.448-1.342z"/><path d="m34.447 54.105a1 1 0 0 0 -1.342.448l-1 2a1 1 0 0 0 1.79.894l1-2a1 1 0 0 0 -.448-1.342z"/><path d="m19.105 35.553-1 2a1 1 0 0 0 1.79.894l1-2a1 1 0 0 0 -1.79-.894z"/><path d="m5.105 34.553-1 2a1 1 0 0 0 1.79.894l1-2a1 1 0 0 0 -1.79-.894z"/><path d="m25.447 44.105a1 1 0 0 0 -1.342.448l-1 2a1 1 0 0 0 1.79.894l1-2a1 1 0 0 0 -.448-1.342z"/><path d="m22.447 50.105a1 1 0 0 0 -1.342.448l-1 2a1 1 0 0 0 1.79.894l1-2a1 1 0 0 0 -.448-1.342z"/><path d="m24.447 56.105a1 1 0 0 0 -1.342.448l-1 2a1 1 0 0 0 1.79.894l1-2a1 1 0 0 0 -.448-1.342z"/><path d="m55.447 52.105a1 1 0 0 0 -1.342.448l-1 2a1 1 0 0 0 1.79.894l1-2a1 1 0 0 0 -.448-1.342z"/><path d="m29.447 57.105a1 1 0 0 0 -1.342.448l-1 2a1 1 0 0 0 1.79.894l1-2a1 1 0 0 0 -.448-1.342z"/><path d="m43.447 46.105a1 1 0 0 0 -1.342.448l-1 2a1 1 0 0 0 1.79.894l1-2a1 1 0 0 0 -.448-1.342z"/><path d="m14.015 34.073h.05a11.912 11.912 0 0 0 7.818-2.94 16.977 16.977 0 0 0 1.985 1.158 1 1 0 0 0 .9-1.79 13.87 13.87 0 0 1 -2.343-1.45 14.055 14.055 0 0 1 -3.248-3.585 1 1 0 0 0 -1.691 1.07 16.108 16.108 0 0 0 2.805 3.323 9.924 9.924 0 0 1 -6.229 2.215h-.042a10 10 0 0 1 -.039-20 1 1 0 0 0 0-2 12 12 0 0 0 .047 24z"/><path d="m17.013 12.529a1 1 0 0 0 1.331-.478 14.071 14.071 0 0 1 12.599-8.051h.057a13.888 13.888 0 0 1 11.182 5.6.984.984 0 0 0 .882.395c.3-.025.6-.048.9-.05h.045a10.983 10.983 0 0 1 10.635 8.236 1 1 0 0 0 .871.744 5 5 0 0 1 -.474 9.976 4.811 4.811 0 0 1 -2.074-.447 1 1 0 0 0 -1.124.21 10.921 10.921 0 0 1 -7.79 3.281 11.08 11.08 0 0 1 -5.6-1.522 1 1 0 0 0 -.972-.024 13.89 13.89 0 0 1 -1.49.661 1 1 0 0 0 .716 1.867c.443-.169.843-.339 1.211-.512a12.971 12.971 0 0 0 6.1 1.53h.052a12.9 12.9 0 0 0 8.727-3.413 6.317 6.317 0 0 0 2.261.369 7 7 0 0 0 1.342-13.86 12.98 12.98 0 0 0 -12.386-9.09c-.2 0-.383.006-.572.017a15.85 15.85 0 0 0 -12.442-5.968h-.065a16.079 16.079 0 0 0 -14.4 9.2 1 1 0 0 0 .478 1.329z"/></g></svg>